<svg width="26" height="26" viewBox="0 0 26 26" fill="none" xmlns="http://www.w3.org/2000/svg">
<path d="M23.1898 0H19.5508C19.1301 0 18.7891 0.341047 18.7891 0.761719C18.7891 1.18239 19.1301 1.52344 19.5508 1.52344H23.1898C23.8993 1.52344 24.4766 2.10072 24.4766 2.81029V6.44922C24.4766 6.86989 24.8176 7.21094 25.2383 7.21094C25.659 7.21094 26 6.86989 26 6.44922V2.81029C26 1.2607 24.7393 0 23.1898 0V0Z" fill="white"/>
<path d="M0.761719 7.21094C1.18239 7.21094 1.52344 6.86989 1.52344 6.44922V2.81029C1.52344 2.10072 2.10072 1.52344 2.81023 1.52344H6.44922C6.86989 1.52344 7.21094 1.18239 7.21094 0.761719C7.21094 0.341047 6.86989 0 6.44922 0H2.81023C1.2607 0 0 1.2607 0 2.81029V6.44922C0 6.86989 0.341047 7.21094 0.761719 7.21094Z" fill="white"/>
<path d="M6.44922 24.4766H2.81023C2.10072 24.4766 1.52344 23.8993 1.52344 23.1897V19.5508C1.52344 19.1301 1.18239 18.7891 0.761719 18.7891C0.341047 18.7891 0 19.1301 0 19.5508V23.1897C0 24.7393 1.2607 26 2.81023 26H6.44922C6.86989 26 7.21094 25.659 7.21094 25.2383C7.21094 24.8176 6.86989 24.4766 6.44922 24.4766Z" fill="white"/>
<path d="M25.2383 18.7891C24.8176 18.7891 24.4766 19.1301 24.4766 19.5508V23.1897C24.4766 23.8993 23.8993 24.4766 23.1898 24.4766H19.5508C19.1301 24.4766 18.7891 24.8176 18.7891 25.2383C18.7891 25.659 19.1301 26 19.5508 26H23.1898C24.7394 26 26 24.7393 26 23.1897V19.5508C26 19.1301 25.659 18.7891 25.2383 18.7891Z" fill="white"/>
<path d="M17.3491 5.58594H19.765C20.095 5.58594 20.3633 5.85432 20.3633 6.18424V8.60011C20.3633 9.02078 20.7044 9.36183 21.1251 9.36183C21.5457 9.36183 21.8868 9.02078 21.8868 8.60011V6.18424C21.8868 5.01429 20.9349 4.0625 19.765 4.0625H17.3491C16.9284 4.0625 16.5874 4.40355 16.5874 4.82422C16.5874 5.24489 16.9284 5.58594 17.3491 5.58594Z" fill="white"/>
<path d="M4.11328 6.18424V8.60011C4.11328 9.02078 4.45433 9.36183 4.875 9.36183C5.29567 9.36183 5.63672 9.02078 5.63672 8.60011V6.18424C5.63672 5.85432 5.90515 5.58594 6.23502 5.58594H8.65094C9.07161 5.58594 9.41266 5.24489 9.41266 4.82422C9.41266 4.40355 9.07161 4.0625 8.65094 4.0625H6.23502C5.06512 4.0625 4.11328 5.01429 4.11328 6.18424Z" fill="white"/>
<path d="M8.65094 20.3125H6.23502C5.9051 20.3125 5.63672 20.0441 5.63672 19.7142V17.2983C5.63672 16.8777 5.29567 16.5366 4.875 16.5366C4.45433 16.5366 4.11328 16.8777 4.11328 17.2983V19.7142C4.11328 20.8842 5.06512 21.8359 6.23502 21.8359H8.65094C9.07161 21.8359 9.41266 21.4949 9.41266 21.0742C9.41266 20.6536 9.07161 20.3125 8.65094 20.3125Z" fill="white"/>
<path d="M21.8868 19.7142V17.2983C21.8868 16.8777 21.5457 16.5366 21.1251 16.5366C20.7044 16.5366 20.3633 16.8777 20.3633 17.2983V19.7142C20.3633 20.0441 20.0949 20.3125 19.765 20.3125H17.3491C16.9284 20.3125 16.5874 20.6536 16.5874 21.0742C16.5874 21.4949 16.9284 21.8359 17.3491 21.8359H19.765C20.9349 21.8359 21.8868 20.8842 21.8868 19.7142Z" fill="white"/>
<path d="M0.0507812 13C0.0507812 13.4207 0.391828 13.7617 0.8125 13.7617H25.1875C25.6082 13.7617 25.9492 13.4207 25.9492 13C25.9492 12.5793 25.6082 12.2383 25.1875 12.2383H0.8125C0.391828 12.2383 0.0507812 12.5793 0.0507812 13Z" fill="white"/>
</svg>
